<svg aria-roledescription="er" role="graphics-document document" viewBox="0 0 1723.3046875 640" style="max-width: 100%;" xmlns="http://www.w3.org/2000/svg" width="100%" id="graph-div" height="100%" xmlns:xlink="http://www.w3.org/1999/xlink"><style>@import url("https://cdnjs.cloudflare.com/ajax/libs/font-awesome/6.4.2/css/all.min.css");'</style><style>#graph-div{font-family:"trebuchet ms",verdana,arial,sans-serif;font-size:16px;fill:#333;}#graph-div .error-icon{fill:#552222;}#graph-div .error-text{fill:#552222;stroke:#552222;}#graph-div .edge-thickness-normal{stroke-width:2px;}#graph-div .edge-thickness-thick{stroke-width:3.5px;}#graph-div .edge-pattern-solid{stroke-dasharray:0;}#graph-div .edge-pattern-dashed{stroke-dasharray:3;}#graph-div .edge-pattern-dotted{stroke-dasharray:2;}#graph-div .marker{fill:#333333;stroke:#333333;}#graph-div .marker.cross{stroke:#333333;}#graph-div svg{font-family:"trebuchet ms",verdana,arial,sans-serif;font-size:16px;}#graph-div .entityBox{fill:#ECECFF;stroke:#9370DB;}#graph-div .attributeBoxOdd{fill:#ffffff;stroke:#9370DB;}#graph-div .attributeBoxEven{fill:#f2f2f2;stroke:#9370DB;}#graph-div .relationshipLabelBox{fill:hsl(80, 100%, 96.2745098039%);opacity:0.7;background-color:hsl(80, 100%, 96.2745098039%);}#graph-div .relationshipLabelBox rect{opacity:0.5;}#graph-div .relationshipLine{stroke:#333333;}#graph-div .entityTitleText{text-anchor:middle;font-size:18px;fill:#333;}#graph-div #MD_PARENT_START{fill:#f5f5f5!important;stroke:#333333!important;stroke-width:1;}#graph-div #MD_PARENT_END{fill:#f5f5f5!important;stroke:#333333!important;stroke-width:1;}#graph-div :root{--mermaid-font-family:"trebuchet ms",verdana,arial,sans-serif;}</style><g></g><defs><marker orient="auto" markerHeight="240" markerWidth="190" refY="7" refX="0" id="MD_PARENT_START"><path d="M 18,7 L9,13 L1,7 L9,1 Z"></path></marker></defs><defs><marker orient="auto" markerHeight="28" markerWidth="20" refY="7" refX="19" id="MD_PARENT_END"><path d="M 18,7 L9,13 L1,7 L9,1 Z"></path></marker></defs><defs><marker orient="auto" markerHeight="18" markerWidth="18" refY="9" refX="0" id="ONLY_ONE_START"><path d="M9,0 L9,18 M15,0 L15,18" fill="none" stroke="gray"></path></marker></defs><defs><marker orient="auto" markerHeight="18" markerWidth="18" refY="9" refX="18" id="ONLY_ONE_END"><path d="M3,0 L3,18 M9,0 L9,18" fill="none" stroke="gray"></path></marker></defs><defs><marker orient="auto" markerHeight="18" markerWidth="30" refY="9" refX="0" id="ZERO_OR_ONE_START"><circle r="6" cy="9" cx="21" fill="white" stroke="gray"></circle><path d="M9,0 L9,18" fill="none" stroke="gray"></path></marker></defs><defs><marker orient="auto" markerHeight="18" markerWidth="30" refY="9" refX="30" id="ZERO_OR_ONE_END"><circle r="6" cy="9" cx="9" fill="white" stroke="gray"></circle><path d="M21,0 L21,18" fill="none" stroke="gray"></path></marker></defs><defs><marker orient="auto" markerHeight="36" markerWidth="45" refY="18" refX="18" id="ONE_OR_MORE_START"><path d="M0,18 Q 18,0 36,18 Q 18,36 0,18 M42,9 L42,27" fill="none" stroke="gray"></path></marker></defs><defs><marker orient="auto" markerHeight="36" markerWidth="45" refY="18" refX="27" id="ONE_OR_MORE_END"><path d="M3,9 L3,27 M9,18 Q27,0 45,18 Q27,36 9,18" fill="none" stroke="gray"></path></marker></defs><defs><marker orient="auto" markerHeight="36" markerWidth="57" refY="18" refX="18" id="ZERO_OR_MORE_START"><circle r="6" cy="18" cx="48" fill="white" stroke="gray"></circle><path d="M0,18 Q18,0 36,18 Q18,36 0,18" fill="none" stroke="gray"></path></marker></defs><defs><marker orient="auto" markerHeight="36" markerWidth="57" refY="18" refX="39" id="ZERO_OR_MORE_END"><circle r="6" cy="18" cx="9" fill="white" stroke="gray"></circle><path d="M21,18 Q39,0 57,18 Q39,36 21,18" fill="none" stroke="gray"></path></marker></defs><path style="stroke: gray; fill: none;" marker-start="url(#ONLY_ONE_START)" marker-end="url(#ZERO_OR_MORE_END)" d="M489.906,65.833L569.073,79.028C648.24,92.222,806.573,118.611,885.74,140.139C964.906,161.667,964.906,178.333,964.906,186.667L964.906,195" class="er relationshipLine"></path><path style="stroke: gray; fill: none;" marker-start="url(#ONLY_ONE_START)" marker-end="url(#ZERO_OR_MORE_END)" d="M389.906,67.919L328.255,80.766C266.604,93.613,143.302,119.306,81.651,146.736C20,174.167,20,203.333,20,232.5C20,261.667,20,290.833,24.762,313.75C29.524,336.667,39.048,353.333,43.81,361.667L48.571,370" class="er relationshipLine"></path><path style="stroke: gray; fill: none;" marker-start="url(#ONLY_ONE_START)" marker-end="url(#ZERO_OR_MORE_END)" d="M397.049,95L387.525,103.333C378.001,111.667,358.954,128.333,349.43,151.25C339.906,174.167,339.906,203.333,339.906,232.5C339.906,261.667,339.906,290.833,344.668,313.75C349.43,336.667,358.954,353.333,363.716,361.667L368.478,370" class="er relationshipLine"></path><path style="stroke: gray; fill: none;" marker-start="url(#ONLY_ONE_START)" marker-end="url(#ZERO_OR_MORE_END)" d="M482.763,95L492.287,103.333C501.811,111.667,520.859,128.333,530.382,151.25C539.906,174.167,539.906,203.333,539.906,232.5C539.906,261.667,539.906,290.833,544.668,313.75C549.43,336.667,558.954,353.333,563.716,361.667L568.478,370" class="er relationshipLine"></path><path style="stroke: gray; fill: none;" marker-start="url(#ONLY_ONE_START)" marker-end="url(#ZERO_OR_MORE_END)" d="M489.906,72.083L531.573,84.236C573.24,96.389,656.573,120.694,698.24,147.431C739.906,174.167,739.906,203.333,739.906,232.5C739.906,261.667,739.906,290.833,744.668,313.75C749.43,336.667,758.954,353.333,763.716,361.667L768.478,370" class="er relationshipLine"></path><path style="stroke: gray; fill: none;" marker-start="url(#ONLY_ONE_START)" marker-end="url(#ZERO_OR_MORE_END)" d="M389.906,74.33L354.914,86.108C319.922,97.887,249.938,121.443,214.945,141.555C179.953,161.667,179.953,178.333,179.953,186.667L179.953,195" class="er relationshipLine"></path><path style="stroke: gray; fill: none;" marker-start="url(#ONLY_ONE_START)" marker-end="url(#ZERO_OR_MORE_END)" d="M986.335,270L991.097,278.333C995.859,286.667,1005.382,303.333,1010.144,320C1014.906,336.667,1014.906,353.333,1014.906,361.667L1014.906,370" class="er relationshipLine"></path><path style="stroke: gray; fill: none;" marker-start="url(#ONLY_ONE_START)" marker-end="url(#ZERO_OR_MORE_END)" d="M914.906,238.074L792.414,251.728C669.922,265.382,424.938,292.691,291.974,314.679C159.01,336.667,138.066,353.333,127.594,361.667L117.123,370" class="er relationshipLine"></path><path style="stroke: gray; fill: none;" marker-start="url(#ONLY_ONE_START)" marker-end="url(#ZERO_OR_MORE_END)" d="M914.906,240.833L835.74,254.028C756.573,267.222,598.24,293.611,514.311,315.139C430.382,336.667,420.859,353.333,416.097,361.667L411.335,370" class="er relationshipLine"></path><path style="stroke: gray; fill: none;" marker-start="url(#ONLY_ONE_START)" marker-end="url(#ZERO_OR_MORE_END)" d="M914.906,245.962L869.073,258.301C823.24,270.641,731.573,295.321,680.978,315.994C630.382,336.667,620.859,353.333,616.097,361.667L611.335,370" class="er relationshipLine"></path><path style="stroke: gray; fill: none;" marker-start="url(#ONLY_ONE_START)" marker-end="url(#ZERO_OR_MORE_END)" d="M922.049,270L912.525,278.333C903.001,286.667,883.954,303.333,867.287,320C850.621,336.667,836.335,353.333,829.192,361.667L822.049,370" class="er relationshipLine"></path><path style="stroke: gray; fill: none;" marker-start="url(#ONLY_ONE_START)" marker-end="url(#ZERO_OR_MORE_END)" d="M1014.906,249.402L1049.715,261.168C1084.523,272.934,1154.141,296.467,1188.949,316.567C1223.758,336.667,1223.758,353.333,1223.758,361.667L1223.758,370" class="er relationshipLine"></path><path style="stroke: gray; fill: none;" marker-start="url(#ONLY_ONE_START)" marker-end="url(#ZERO_OR_MORE_END)" d="M1014.906,241.652L1086.248,254.71C1157.59,267.768,1300.273,293.884,1371.615,315.275C1442.957,336.667,1442.957,353.333,1442.957,361.667L1442.957,370" class="er relationshipLine"></path><path style="stroke: gray; fill: none;" marker-start="url(#ONLY_ONE_START)" marker-end="url(#ZERO_OR_MORE_END)" d="M1014.906,238.855L1121.306,252.379C1227.706,265.904,1440.505,292.952,1546.905,314.809C1653.305,336.667,1653.305,353.333,1653.305,361.667L1653.305,370" class="er relationshipLine"></path><path style="stroke: gray; fill: none;" marker-start="url(#ONLY_ONE_START)" marker-end="url(#ZERO_OR_MORE_END)" d="M70,445L70,453.333C70,461.667,70,478.333,70,495C70,511.667,70,528.333,70,536.667L70,545" class="er relationshipLine"></path><g transform="translate(389.90625,20 )" id="entity-Supplier-b4fb3fa3-1c7a-5da3-a336-c5365b7cbd2b"><rect height="75" width="100" y="0" x="0" class="er entityBox"></rect><text transform="translate(50,37.5)" style="dominant-baseline: middle; text-anchor: middle; font-size: 12px;" y="0" x="0" id="text-entity-Supplier-b4fb3fa3-1c7a-5da3-a336-c5365b7cbd2b" class="er entityLabel">Supplier</text></g><g transform="translate(914.90625,195 )" id="entity-Aquarium-67c5f3a1-16ac-57aa-9597-ceb8d9768377"><rect height="75" width="100" y="0" x="0" class="er entityBox"></rect><text transform="translate(50,37.5)" style="dominant-baseline: middle; text-anchor: middle; font-size: 12px;" y="0" x="0" id="text-entity-Aquarium-67c5f3a1-16ac-57aa-9597-ceb8d9768377" class="er entityLabel">Aquarium</text></g><g transform="translate(20,370 )" id="entity-Fish-1b1ab035-7cbd-5005-a010-5e64ab7253f7"><rect height="75" width="100" y="0" x="0" class="er entityBox"></rect><text transform="translate(50,37.5)" style="dominant-baseline: middle; text-anchor: middle; font-size: 12px;" y="0" x="0" id="text-entity-Fish-1b1ab035-7cbd-5005-a010-5e64ab7253f7" class="er entityLabel">Fish</text></g><g transform="translate(339.90625,370 )" id="entity-Equipment-81f95949-eb14-587c-834b-db8766d39520"><rect height="75" width="100" y="0" x="0" class="er entityBox"></rect><text transform="translate(50,37.5)" style="dominant-baseline: middle; text-anchor: middle; font-size: 12px;" y="0" x="0" id="text-entity-Equipment-81f95949-eb14-587c-834b-db8766d39520" class="er entityLabel">Equipment</text></g><g transform="translate(539.90625,370 )" id="entity-Invertebrate-122978e9-069d-5868-9c01-4cac64f4e63a"><rect height="75" width="100" y="0" x="0" class="er entityBox"></rect><text transform="translate(50,37.5)" style="dominant-baseline: middle; text-anchor: middle; font-size: 12px;" y="0" x="0" id="text-entity-Invertebrate-122978e9-069d-5868-9c01-4cac64f4e63a" class="er entityLabel">Invertebrate</text></g><g transform="translate(739.90625,370 )" id="entity-Plant-bc5e88f4-ce56-5eca-a395-e5bfe33bcaec"><rect height="75" width="100" y="0" x="0" class="er entityBox"></rect><text transform="translate(50,37.5)" style="dominant-baseline: middle; text-anchor: middle; font-size: 12px;" y="0" x="0" id="text-entity-Plant-bc5e88f4-ce56-5eca-a395-e5bfe33bcaec" class="er entityLabel">Plant</text></g><g transform="translate(120,195 )" id="entity-SupplierProducts-873455bc-ae4a-587d-a9c2-c665db237a25"><rect height="75" width="119.90625" y="0" x="0" class="er entityBox"></rect><text transform="translate(59.953125,37.5)" style="dominant-baseline: middle; text-anchor: middle; font-size: 12px;" y="0" x="0" id="text-entity-SupplierProducts-873455bc-ae4a-587d-a9c2-c665db237a25" class="er entityLabel">SupplierProducts</text></g><g transform="translate(964.90625,370 )" id="entity-Images-29c03800-e3a1-5746-b715-a64c9a5089da"><rect height="75" width="100" y="0" x="0" class="er entityBox"></rect><text transform="translate(50,37.5)" style="dominant-baseline: middle; text-anchor: middle; font-size: 12px;" y="0" x="0" id="text-entity-Images-29c03800-e3a1-5746-b715-a64c9a5089da" class="er entityLabel">Images</text></g><g transform="translate(1164.90625,370 )" id="entity-WaterParameter-723c44f0-0a99-516a-a08a-859513cd7243"><rect height="75" width="117.703125" y="0" x="0" class="er entityBox"></rect><text transform="translate(58.8515625,37.5)" style="dominant-baseline: middle; text-anchor: middle; font-size: 12px;" y="0" x="0" id="text-entity-WaterParameter-723c44f0-0a99-516a-a08a-859513cd7243" class="er entityLabel">WaterParameter</text></g><g transform="translate(1382.609375,370 )" id="entity-MaintenanceTask-1bd720d4-7f28-5cd4-8dcb-69ef083a2a8d"><rect height="75" width="120.6953125" y="0" x="0" class="er entityBox"></rect><text transform="translate(60.34765625,37.5)" style="dominant-baseline: middle; text-anchor: middle; font-size: 12px;" y="0" x="0" id="text-entity-MaintenanceTask-1bd720d4-7f28-5cd4-8dcb-69ef083a2a8d" class="er entityLabel">MaintenanceTask</text></g><g transform="translate(1603.3046875,370 )" id="entity-Inventory-1b36f409-8c02-5227-a3b0-d588273060ae"><rect height="75" width="100" y="0" x="0" class="er entityBox"></rect><text transform="translate(50,37.5)" style="dominant-baseline: middle; text-anchor: middle; font-size: 12px;" y="0" x="0" id="text-entity-Inventory-1b36f409-8c02-5227-a3b0-d588273060ae" class="er entityLabel">Inventory</text></g><g transform="translate(20,545 )" id="entity-TankMates-e8bbe32d-89d5-517b-bc80-0816849aa8e7"><rect height="75" width="100" y="0" x="0" class="er entityBox"></rect><text transform="translate(50,37.5)" style="dominant-baseline: middle; text-anchor: middle; font-size: 12px;" y="0" x="0" id="text-entity-TankMates-e8bbe32d-89d5-517b-bc80-0816849aa8e7" class="er entityLabel">TankMates</text></g><rect height="14" width="53.171875" y="101.85025024414062" x="713.7099609375" class="er relationshipLabelBox"></rect><text style="text-anchor: middle; dominant-baseline: middle; font-size: 12px;" y="108.85025024414062" x="740.2958984375" id="rel1" class="er relationshipLabel">vendor_id</text><rect height="14" width="59.359375" y="128.58309936523438" x="80.48023986816406" class="er relationshipLabelBox"></rect><text style="text-anchor: middle; dominant-baseline: middle; font-size: 12px;" y="135.58309936523438" x="110.15992736816406" id="rel2" class="er relationshipLabel">supplier_id</text><rect height="14" width="59.359375" y="218.57688903808594" x="310.2315673828125" class="er relationshipLabelBox"></rect><text style="text-anchor: middle; dominant-baseline: middle; font-size: 12px;" y="225.57688903808594" x="339.9112548828125" id="rel3" class="er relationshipLabel">supplier_id</text><rect height="14" width="59.359375" y="218.57684326171875" x="510.2210693359375" class="er relationshipLabelBox"></rect><text style="text-anchor: middle; dominant-baseline: middle; font-size: 12px;" y="225.57684326171875" x="539.9007568359375" id="rel4" class="er relationshipLabel">supplier_id</text><rect height="14" width="59.359375" y="146.4746551513672" x="677.233642578125" class="er relationshipLabelBox"></rect><text style="text-anchor: middle; dominant-baseline: middle; font-size: 12px;" y="153.4746551513672" x="706.913330078125" id="rel5" class="er relationshipLabel">supplier_id</text><rect height="14" width="59.359375" y="109.8066177368164" x="239.40908813476562" class="er relationshipLabelBox"></rect><text style="text-anchor: middle; dominant-baseline: middle; font-size: 12px;" y="116.8066177368164" x="269.0887756347656" id="rel6" class="er relationshipLabel">supplier_id</text><rect height="14" width="48.359375" y="310.5529479980469" x="985.2313842773438" class="er relationshipLabelBox"></rect><text style="text-anchor: middle; dominant-baseline: middle; font-size: 12px;" y="317.5529479980469" x="1009.4110717773438" id="rel7" class="er relationshipLabel">entity_id</text><rect height="14" width="66.859375" y="277.3897399902344" x="477.4532165527344" class="er relationshipLabelBox"></rect><text style="text-anchor: middle; dominant-baseline: middle; font-size: 12px;" y="284.3897399902344" x="510.8829040527344" id="rel8" class="er relationshipLabel">aquarium_id</text><rect height="14" width="66.859375" y="278.5407409667969" x="621.2437133789062" class="er relationshipLabelBox"></rect><text style="text-anchor: middle; dominant-baseline: middle; font-size: 12px;" y="285.5407409667969" x="654.6734008789062" id="rel9" class="er relationshipLabel">aquarium_id</text><rect height="14" width="66.859375" y="283.9640197753906" x="720.2786254882812" class="er relationshipLabelBox"></rect><text style="text-anchor: middle; dominant-baseline: middle; font-size: 12px;" y="290.9640197753906" x="753.7083129882812" id="rel10" class="er relationshipLabel">aquarium_id</text><rect height="14" width="66.859375" y="310.63189697265625" x="836.2426147460938" class="er relationshipLabelBox"></rect><text style="text-anchor: middle; dominant-baseline: middle; font-size: 12px;" y="317.63189697265625" x="869.6723022460938" id="rel11" class="er relationshipLabel">aquarium_id</text><rect height="14" width="66.859375" y="284.87603759765625" x="1101.7567138671875" class="er relationshipLabelBox"></rect><text style="text-anchor: middle; dominant-baseline: middle; font-size: 12px;" y="291.87603759765625" x="1135.1864013671875" id="rel12" class="er relationshipLabel">aquarium_id</text><rect height="14" width="66.859375" y="277.5856628417969" x="1208.8099365234375" class="er relationshipLabelBox"></rect><text style="text-anchor: middle; dominant-baseline: middle; font-size: 12px;" y="284.5856628417969" x="1242.2396240234375" id="rel13" class="er relationshipLabel">aquarium_id</text><rect height="14" width="66.859375" y="275.1222839355469" x="1312.39794921875" class="er relationshipLabelBox"></rect><text style="text-anchor: middle; dominant-baseline: middle; font-size: 12px;" y="282.1222839355469" x="1345.82763671875" id="rel14" class="er relationshipLabel">aquarium_id</text><rect height="14" width="35.671875" y="488" x="52.1640625" class="er relationshipLabelBox"></rect><text style="text-anchor: middle; dominant-baseline: middle; font-size: 12px;" y="495" x="70" id="rel15" class="er relationshipLabel">fish_id</text></svg>